#!OML:ASF G:\JayActor3\Patient Classification 1\Patient 1\Session 5\male.ASF
:FULLY-SPECIFIED
:DEGREES
1073
root 22.1885 16.1664 2.88846 -385.077 47.6646 -384.419
lowerback 6.62757 -1.28939 16.3825
upperback 2.06374 -0.489525 2.48923
thorax -1.65128 -0.211022 -6.48607
lowerneck 0.694592 -0.296224 2.09317
upperneck 0.464295 -0.374968 2.23493
head 0.0280013 -0.180373 0.334299
rclavicle -3.30728e-014 -1.19271e-014
rhumerus -39.8149 -12.0874 -82.4274
rradius 23.0943
rwrist 11.7343
rhand -19.2447 -8.88365
rfingers 7.12502
rthumb 7.06897 -38.7456
lclavicle -3.30728e-014 -1.19271e-014
lhumerus -37.4457 33.0727 67.3639
lradius 7.58131
lwrist -8.06061
lhand -21.896 14.0252
lfingers 7.12502
lthumb 4.5092 43.9572
rfemur 21.804 -3.40333 44.544
rtibia 12.3292
rfoot -17.6476 -15.1525
rtoes -3.94841
lfemur -38.1105 5.2104 -12.5915
ltibia 38.7462
lfoot -24.8806 8.6898
ltoes -20.8622
1074
root 22.3074 16.151 2.98079 -384.912 47.4999 -384.412
lowerback 6.32338 -1.19219 16.5471
upperback 2.018 -0.40976 2.46786
thorax -1.51079 -0.164316 -6.60737
lowerneck 0.707867 -0.277907 2.10383
upperneck 0.447165 -0.34959 2.23035
head 0.0206645 -0.168015 0.331189
rclavicle 1.13562e-013 -2.8625e-014
rhumerus -39.8839 -12.1148 -82.3774
rradius 23.0519
rwrist 11.8271
rhand -19.2525 -8.89944
rfingers 7.12502
rthumb 7.0614 -38.7617
lclavicle 1.13562e-013 -2.8625e-014
lhumerus -37.5385 32.9585 67.3772
lradius 7.5803
lwrist -7.88684
lhand -21.8473 14.0139
lfingers 7.12502
lthumb 4.55623 43.9449
rfemur 21.7146 -3.42226 44.5108
rtibia 13.2846
rfoot -17.658 -15.0382
rtoes -5.05905
lfemur -36.7205 5.27208 -12.4004
ltibia 37.1781
lfoot -25.0394 8.78761
ltoes -20.6979
1075
root 22.4275 16.1366 3.07407 -384.713 47.3093 -384.361
lowerback 6.05098 -1.08817 16.6846
upperback 1.95839 -0.31582 2.44142
thorax -1.39925 -0.113506 -6.71955
lowerneck 0.7188 -0.254513 2.11429
upperneck 0.450253 -0.318015 2.22489
head 0.0197673 -0.152223 0.327814
rclavicle -7.65445e-014 -7.15625e-015
rhumerus -39.9686 -12.1214 -82.3385
rradius 23.0112
rwrist 11.9196
rhand -19.2512 -8.89734
rfingers 7.12502
rthumb 7.06269 -38.7595
lclavicle -7.65445e-014 -7.15625e-015
lhumerus -37.6605 32.8429 67.363
lradius 7.57411
lwrist -7.71949
lhand -21.8074 14.0031
lfingers 7.12502
lthumb 4.59476 43.9333
rfemur 21.5754 -3.41196 44.4561
rtibia 14.3412
rfoot -17.6183 -14.9522
rtoes -6.36969
lfemur -35.367 5.22776 -12.147
ltibia 35.7674
lfoot -25.1761 8.82379
ltoes -20.6579
1076
root 22.549 16.1227 3.1684 -384.482 47.0877 -384.271
lowerback 5.80483 -0.977761 16.7977
upperback 1.88705 -0.208969 2.41311
thorax -1.31155 -0.0587786 -6.8204
lowerneck 0.717387 -0.223695 2.11786
upperneck 0.482772 -0.277721 2.22195
head 0.0296926 -0.131537 0.326253
rclavicle -5.83433e-014 8.11041e-014
rhumerus -40.0618 -12.1023 -82.3103
rradius 22.9736
rwrist 11.9993
rhand -19.2335 -8.89883
rfingers 7.12502
rthumb 7.07973 -38.7604
lclavicle -5.83433e-014 8.11041e-014
lhumerus -37.8017 32.7358 67.3266
lradius 7.55098
lwrist -7.56427
lhand -21.7952 13.9884
lfingers 7.12502
lthumb 4.60654 43.9183
rfemur 21.3701 -3.38191 44.378
rtibia 15.5302
rfoot -17.5424 -14.8726
rtoes -7.84457
lfemur -34.0543 5.08055 -11.834
ltibia 34.5131
lfoot -25.3119 8.71804
ltoes -20.6826
1077
root 22.6722 16.1084 3.26407 -384.204 46.8337 -384.131
lowerback 5.57299 -0.85753 16.8755
upperback 1.80218 -0.087404 2.38193
thorax -1.24255 0.000913628 -6.90534
lowerneck 0.707579 -0.185304 2.12106
upperneck 0.547425 -0.228392 2.21593
head 0.050597 -0.105772 0.323793
rclavicle -4.92272e-014 1.66979e-014
rhumerus -40.1696 -12.0721 -82.2825
rradius 22.9422
rwrist 12.0714
rhand -19.2007 -8.90638
rfingers 7.12502
rthumb 7.11146 -38.7669
lclavicle -4.92272e-014 1.66979e-014
lhumerus -37.9718 32.6365 67.2643
lradius 7.51335
lwrist -7.42213
lhand -21.8128 13.9795
lfingers 7.12502
lthumb 4.58955 43.9098
rfemur 21.0922 -3.3332 44.2647
rtibia 16.8576
rfoot -17.4257 -14.7918
rtoes -9.38466
lfemur -32.7845 4.86749 -11.4985
ltibia 33.422
lfoot -25.4952 8.43066
ltoes -20.7694
1078
root 22.7975 16.0937 3.3614 -383.873 46.5431 -383.937
lowerback 5.34154 -0.724179 16.9219
upperback 1.70516 0.0505051 2.34404
thorax -1.18256 0.0671364 -6.98054
lowerneck 0.694523 -0.139196 2.13641
upperneck 0.639975 -0.169439 2.20206
head 0.0803676 -0.074702 0.317026
rclavicle -1.12626e-013 6.12257e-014
rhumerus -40.2959 -12.0395 -82.2543
rradius 22.9225
rwrist 12.1293
rhand -19.1606 -8.91412
rfingers 7.12502
rthumb 7.15014 -38.7733
lclavicle -1.12626e-013 6.12257e-014
lhumerus -38.1733 32.5394 67.1701
lradius 7.46582
lwrist -7.29171
lhand -21.8527 13.9836
lfingers 7.12502
lthumb 4.55104 43.9147
rfemur 20.7519 -3.26891 44.106
rtibia 18.3067
rfoot -17.2812 -14.6765
rtoes -10.8393
lfemur -31.5639 4.64193 -11.1788
ltibia 32.5
lfoot -25.7493 7.95483
ltoes -20.9155
1079
root 22.9251 16.0792 3.46072 -383.493 46.2236 -383.697
lowerback 5.10041 -0.581155 16.9288
upperback 1.59444 0.19833 2.30639
thorax -1.12933 0.136831 -7.03354
lowerneck 0.69694 -0.0894013 2.15018
upperneck 0.743698 -0.10533 2.18537
head 0.111015 -0.0409769 0.309717
rclavicle 1.87774e-014 -3.18055e-015
rhumerus -40.4436 -11.9993 -82.2169
rradius 22.9152
rwrist 12.166
rhand -19.1232 -8.92053
rfingers 7.12502
rthumb 7.18628 -38.7785
lclavicle 1.87774e-014 -3.18055e-015
lhumerus -38.423 32.4503 67.0418
lradius 7.41919
lwrist -7.18124
lhand -21.9049 13.9933
lfingers 7.12502
lthumb 4.50059 43.9255
rfemur 20.3568 -3.18785 43.9084
rtibia 19.8511
rfoot -17.0914 -14.543
rtoes -12.1496
lfemur -30.4171 4.49324 -10.9248
ltibia 31.7503
lfoot -26.0517 7.33858
ltoes -21.1873
1080
root 23.0549 16.0669 3.56214 -383.07 45.8917 -383.422
lowerback 4.82779 -0.435174 16.8966
upperback 1.48012 0.341866 2.26927
thorax -1.06331 0.205111 -7.06303
lowerneck 0.711441 -0.0344911 2.15985
upperneck 0.848281 -0.0340251 2.16713
head 0.14 -0.00373304 0.302646
rclavicle 8.76889e-014 -1.90833e-014
rhumerus -40.5932 -11.9473 -82.1763
rradius 22.9181
rwrist 12.1764
rhand -19.0988 -8.92881
rfingers 7.12502
rthumb 7.20978 -38.786
lclavicle 8.76889e-014 -1.90833e-014
lhumerus -38.7043 32.3834 66.8848
lradius 7.37497
lwrist -7.09062
lhand -21.9565 14.0132
lfingers 7.12502
lthumb 4.45077 43.9465
rfemur 19.9075 -3.09661 43.6738
rtibia 21.4653
rfoot -16.8265 -14.416
rtoes -13.2987
lfemur -29.3919 4.50084 -10.7744
ltibia 31.1669
lfoot -26.3007 6.56407
ltoes -21.5508
1081
root 23.1858 16.0587 3.6655 -382.618 45.5778 -383.124
lowerback 4.53032 -0.292748 16.8234
upperback 1.36184 0.474148 2.22855
thorax -0.990543 0.268065 -7.07207
lowerneck 0.744142 0.0208738 2.17901
upperneck 0.944329 0.0388211 2.14532
head 0.163522 0.03407 0.292999
rclavicle -1.06424e-013 -8.74653e-015
rhumerus -40.7388 -11.9011 -82.1348
rradius 22.9212
rwrist 12.1654
rhand -19.0995 -8.93291
rfingers 7.12502
rthumb 7.20908 -38.7901
lclavicle -1.06424e-013 -8.74653e-015
lhumerus -39.0062 32.3208 66.7026
lradius 7.33817
lwrist -7.025
lhand -21.985 14.049
lfingers 7.12502
lthumb 4.42323 43.9828
rfemur 19.3924 -3.00208 43.4091
rtibia 23.1501
rfoot -16.4882 -14.3013
rtoes -14.1584
lfemur -28.541 4.71961 -10.7477
ltibia 30.7361
lfoot -26.3751 5.58663
ltoes -21.8986
1082
root 23.3162 16.0559 3.76981 -382.162 45.3223 -382.816
lowerback 4.23203 -0.167428 16.702
upperback 1.24267 0.582058 2.18213
thorax -0.924776 0.318359 -7.05852
lowerneck 0.793258 0.0700948 2.20339
upperneck 1.0195 0.104605 2.12242
head 0.178167 0.0679376 0.282178
rclavicle -3.23025e-016 -9.54166e-015
rhumerus -40.8673 -11.8872 -82.0848
rradius 22.9106
rwrist 12.1547
rhand -19.1372 -8.93794
rfingers 7.12502
rthumb 7.1727 -38.7964
lclavicle -3.23025e-016 -9.54166e-015
lhumerus -39.295 32.2593 66.5139
lradius 7.29329
lwrist -6.98665
lhand -21.9923 14.0851
lfingers 7.12502
lthumb 4.41624 44.019
rfemur 18.7775 -2.93089 43.1175
rtibia 24.9412
rfoot -16.0208 -14.2124
rtoes -14.7912
lfemur -27.8973 5.17939 -10.8496
ltibia 30.4328
lfoot -26.1785 4.32811
ltoes -22.0776
1083
root 23.4441 16.0591 3.87382 -381.701 45.1656 -382.47
lowerback 3.96686 -0.0710585 16.4962
upperback 1.12547 0.655254 2.12319
thorax -0.885163 0.349542 -7.01014
lowerneck 0.854454 0.116191 2.23604
upperneck 1.07762 0.167157 2.09878
head 0.185782 0.0998939 0.269783
rclavicle -4.62796e-014 -1.35174e-014
rhumerus -40.9663 -11.9353 -82.0152
rradius 22.8613
rwrist 12.1858
rhand -19.2344 -8.92676
rfingers 7.12502
rthumb 7.07888 -38.7884
lclavicle -4.62796e-014 -1.35174e-014
lhumerus -39.5478 32.1972 66.3327
lradius 7.23704
lwrist -6.9812
lhand -21.9729 14.1316
lfingers 7.12502
lthumb 4.43491 44.0651
rfemur 18.0234 -2.90556 42.7686
rtibia 26.9064
rfoot -15.4078 -14.1527
rtoes -15.1393
lfemur -27.4459 5.87531 -11.0968
ltibia 30.2245
lfoot -25.6549 2.7476
ltoes -21.893
